<svg xmlns="http://www.w3.org/2000/svg" width="240" height="1600" viewBox="0 0 240 1600" fill="none">
  <defs>
    <linearGradient id="f" x1="30" y1="0" x2="200" y2="1600" gradientUnits="userSpaceOnUse">
      <stop stop-color="#FFD28D" stop-opacity="0.8"/>
      <stop offset="0.24" stop-color="#FFAA4F" stop-opacity="0.5"/>
      <stop offset="0.52" stop-color="#E26A1D" stop-opacity="0.26"/>
      <stop offset="1" stop-color="#000" stop-opacity="0"/>
    </linearGradient>
    <filter id="blur"><feGaussianBlur stdDeviation="7"/></filter>
  </defs>
  <g filter="url(#blur)">
    <path d="M84 1550C47 1430 111 1367 73 1246C35 1124 128 1042 96 918C72 826 135 735 106 620C75 496 133 413 104 304C86 236 112 148 96 44" stroke="url(#f)" stroke-width="18" stroke-linecap="round"/>
    <path d="M126 1578C103 1451 176 1381 147 1265C118 1147 197 1062 167 945C148 867 198 780 169 675C136 553 193 481 162 372C146 317 165 217 156 96" stroke="url(#f)" stroke-width="12" stroke-linecap="round" opacity="0.8"/>
  </g>
</svg>
