<svg xmlns="http://www.w3.org/2000/svg" width="240" height="1600" viewBox="0 0 240 1600" fill="none">
  <defs>
    <linearGradient id="f" x1="210" y1="0" x2="40" y2="1600" gradientUnits="userSpaceOnUse">
      <stop stop-color="#FFD28D" stop-opacity="0.8"/>
      <stop offset="0.24" stop-color="#FFAA4F" stop-opacity="0.5"/>
      <stop offset="0.52" stop-color="#E26A1D" stop-opacity="0.26"/>
      <stop offset="1" stop-color="#000" stop-opacity="0"/>
    </linearGradient>
    <filter id="blur"><feGaussianBlur stdDeviation="7"/></filter>
  </defs>
  <g filter="url(#blur)">
    <path d="M156 1550C193 1430 129 1367 167 1246C205 1124 112 1042 144 918C168 826 105 735 134 620C165 496 107 413 136 304C154 236 128 148 144 44" stroke="url(#f)" stroke-width="18" stroke-linecap="round"/>
    <path d="M114 1578C137 1451 64 1381 93 1265C122 1147 43 1062 73 945C92 867 42 780 71 675C104 553 47 481 78 372C94 317 75 217 84 96" stroke="url(#f)" stroke-width="12" stroke-linecap="round" opacity="0.8"/>
  </g>
</svg>
